# xmcd
#
# Track frame offsets: 
#        150
#        16827
#        41440
#        57225
#        76240
#        99510
#        123445
#        140530
#        159167
#        184272
#        207307
#        229847
#        250732
#
# Disc length: 3616 seconds
#
# Revision: 3
# Processed by: cddbd v1.5.2PL0 Copyright (c) Steve Scherf et al.
# Submitted via: ExactAudioCopyFreeDBPlugin 1.0
#
DISCID=a20e1e0d
DTITLE=Al Green - Don't Look Back
DYEAR=1993
DGENRE=Soul
TTITLE0=Best Love
TTITLE1=Love is a Beautiful Thing
TTITLE2=Waiting on You
TTITLE3=What Does it Take
TTITLE4=Keep on Pushing Love
TTITLE5=You Are My Everything
TTITLE6=One Love
TTITLE7=People in the World (Keep on Loving You)
TTITLE8=Give it Everything
TTITLE9=Your Love (Is More Than I Ever Hoped For)
TTITLE10=Fountain of Love
TTITLE11=Don't Look Back (ft Curtis Stigers)
TTITLE12=Love in Motion
EXTD=74321-16310-20
EXTT0=
EXTT1=
EXTT2=
EXTT3=
EXTT4=
EXTT5=
EXTT6=
EXTT7=
EXTT8=
EXTT9=
EXTT10=
EXTT11=
EXTT12=
PLAYORDER=
